<?xml version="1.0" encoding="UTF-8"?>
<!DOCTYPE svg PUBLIC "-//W3C//DTD SVG 1.1//EN" "http://www.w3.org/Graphics/SVG/1.1/DTD/svg11.dtd">
<svg xmlns="http://www.w3.org/2000/svg" version="1.1" width="148px" height="150px" style="shape-rendering:geometricPrecision; text-rendering:geometricPrecision; image-rendering:optimizeQuality; fill-rule:evenodd; clip-rule:evenodd" xmlns:xlink="http://www.w3.org/1999/xlink">
<g><path style="opacity:0.594" fill="#443d3f" d="M 64.5,-0.5 C 65.8333,-0.5 67.1667,-0.5 68.5,-0.5C 69.475,2.06674 70.1417,4.7334 70.5,7.5C 68.5113,5.53291 67.0113,3.19958 66,0.5C 65.2828,1.0442 64.7828,1.71087 64.5,2.5C 63.375,1.65225 63.375,0.652248 64.5,-0.5 Z"/></g>
<g><path style="opacity:0.958" fill="#f7b298" d="M 70.5,8.5 C 71.5003,11.8803 71.167,15.2137 69.5,18.5C 66.0257,18.2527 65.359,17.2527 67.5,15.5C 66.3947,14.1076 65.0614,12.941 63.5,12C 65.1341,11.5065 66.8008,11.3398 68.5,11.5C 68.2852,9.82124 68.9519,8.82124 70.5,8.5 Z"/></g>
<g><path style="opacity:1" fill="#f9f8fc" d="M 58.5,14.5 C 58.0317,17.9 59.3651,20.2333 62.5,21.5C 63.1757,20.3984 63.8423,19.3984 64.5,18.5C 70.8108,21.9899 77.1442,25.4899 83.5,29C 84.1233,31.6073 84.79,34.1073 85.5,36.5C 85.7678,38.099 85.4345,39.4324 84.5,40.5C 84.1667,40.5 83.8333,40.5 83.5,40.5C 83.7692,38.5714 83.2692,36.9047 82,35.5C 81.1725,39.8713 81.3391,44.2047 82.5,48.5C 83.4656,46.604 83.7989,44.604 83.5,42.5C 84.5,42.5 85.5,42.5 86.5,42.5C 86.1081,45.7216 86.6081,48.7216 88,51.5C 88.1909,49.2922 88.6909,47.2922 89.5,45.5C 89.1924,47.924 89.5258,50.2573 90.5,52.5C 91.4941,47.544 91.8275,42.544 91.5,37.5C 92.404,36.791 92.7373,35.791 92.5,34.5C 99.5522,38.11 106.385,42.11 113,46.5C 113.833,62.1773 113.666,77.844 112.5,93.5C 96.3342,83.9158 80.0008,74.5825 63.5,65.5C 59.1699,62.6967 54.6699,60.03 50,57.5C 49.1671,41.8227 49.3338,26.156 50.5,10.5C 53.409,11.4238 56.0757,12.7572 58.5,14.5 Z"/></g>
<g><path style="opacity:1" fill="#453370" d="M 96.5,16.5 C 95.596,15.791 95.2627,14.791 95.5,13.5C 94.5,13.5 93.5,13.5 92.5,13.5C 93.2039,11.6558 94.5372,11.1558 96.5,12C 97.7279,13.4902 97.7279,14.9902 96.5,16.5 Z"/></g>
<g><path style="opacity:1" fill="#f7e2d6" d="M 92.5,13.5 C 93.5,13.5 94.5,13.5 95.5,13.5C 95.2627,14.791 95.596,15.791 96.5,16.5C 99.9031,20.3857 100.403,24.719 98,29.5C 97.6232,30.9423 96.7899,31.9423 95.5,32.5C 94.2264,31.8106 94.2264,30.9772 95.5,30C 94.9056,29.5357 94.2389,29.369 93.5,29.5C 92.548,28.548 91.548,27.548 90.5,26.5C 89.5712,27.5498 88.9046,27.5498 88.5,26.5C 88.602,22.0114 89.9354,17.6781 92.5,13.5 Z"/></g>
<g><path style="opacity:0.603" fill="#443370" d="M 15.5,32.5 C 13.8007,32.5271 12.4674,33.1938 11.5,34.5C 10.0171,32.3161 10.6837,30.9827 13.5,30.5C 14.7133,30.7472 15.38,31.4138 15.5,32.5 Z"/></g>
<g><path style="opacity:0.997" fill="#7f49e5" d="M 24.5,66.5 C 23.8333,65.8333 23.1667,65.1667 22.5,64.5C 22.8158,56.6749 22.1491,51.0083 20.5,47.5C 22.1042,46.713 22.7709,45.3797 22.5,43.5C 21.1667,43.5 19.8333,43.5 18.5,43.5C 18.5,42.5 18.5,41.5 18.5,40.5C 17.4296,35.023 19.4296,31.3564 24.5,29.5C 26.3325,30.2485 27.9991,31.2485 29.5,32.5C 30.8333,42.8333 30.8333,53.1667 29.5,63.5C 27.9713,64.7629 26.3046,65.7629 24.5,66.5 Z"/></g>
<g><path style="opacity:1" fill="#bea1e8" d="M 93.5,29.5 C 94.2389,29.369 94.9056,29.5357 95.5,30C 94.2264,30.9772 94.2264,31.8106 95.5,32.5C 95.5,32.8333 95.5,33.1667 95.5,33.5C 94.209,33.2627 93.209,33.596 92.5,34.5C 92.7373,35.791 92.404,36.791 91.5,37.5C 91.634,35.7085 91.3007,34.0418 90.5,32.5C 91.0998,31.1001 92.0998,30.1001 93.5,29.5 Z"/></g>
<g><path style="opacity:1" fill="#f8e4d6" d="M 15.5,32.5 C 16.5058,35.2097 17.5058,37.8763 18.5,40.5C 18.5,41.5 18.5,42.5 18.5,43.5C 16.7274,44.8923 14.7274,46.059 12.5,47C 13.4506,47.7175 13.6172,48.5509 13,49.5C 12.1482,48.4293 11.3149,47.4293 10.5,46.5C 9.78389,44.4437 9.11722,42.277 8.5,40C 9.52656,38.1335 10.5266,36.3002 11.5,34.5C 12.4674,33.1938 13.8007,32.5271 15.5,32.5 Z"/></g>
<g><path style="opacity:1" fill="#a271ff" d="M 97.5,42.5 C 98.8086,44.5706 99.4752,47.0706 99.5,50C 99.1667,52.5 98.8333,55 98.5,57.5C 97.5059,52.544 97.1725,47.544 97.5,42.5 Z"/></g>
<g><path style="opacity:1" fill="#8e5eeb" d="M 90.5,32.5 C 91.3007,34.0418 91.634,35.7085 91.5,37.5C 91.8275,42.544 91.4941,47.544 90.5,52.5C 89.5258,50.2573 89.1924,47.924 89.5,45.5C 88.4908,44.0609 88.8241,42.7276 90.5,41.5C 89.2172,38.3654 89.2172,35.3654 90.5,32.5 Z"/></g>
<g><path style="opacity:0.969" fill="#cdcad9" d="M 18.5,43.5 C 19.8333,43.5 21.1667,43.5 22.5,43.5C 22.7709,45.3797 22.1042,46.713 20.5,47.5C 19.8401,48.964 19.5068,50.6307 19.5,52.5C 20.2735,56.6916 21.2735,60.6916 22.5,64.5C 23.1667,65.1667 23.8333,65.8333 24.5,66.5C 20.9663,68.7664 17.2996,70.7664 13.5,72.5C 13.3225,68.4976 12.3225,64.8309 10.5,61.5C 10.5,56.5 10.5,51.5 10.5,46.5C 11.3149,47.4293 12.1482,48.4293 13,49.5C 13.6172,48.5509 13.4506,47.7175 12.5,47C 14.7274,46.059 16.7274,44.8923 18.5,43.5 Z"/></g>
<g><path style="opacity:0.933" fill="#9369e5" d="M 14.5,50.5 C 15.6009,49.4017 16.9343,49.235 18.5,50C 16.9465,53.5653 17.2799,56.8986 19.5,60C 18.2161,60.6838 17.0495,60.5171 16,59.5C 15.8195,56.3054 15.3195,53.3054 14.5,50.5 Z"/></g>
<g><path style="opacity:1" fill="#876ac2" d="M 20.5,47.5 C 22.1491,51.0083 22.8158,56.6749 22.5,64.5C 21.2735,60.6916 20.2735,56.6916 19.5,52.5C 19.5068,50.6307 19.8401,48.964 20.5,47.5 Z"/></g>
<g><path style="opacity:1" fill="#9b67ff" d="M 106.5,56.5 C 107.693,56.9704 108.36,57.9704 108.5,59.5C 108.167,60.5 107.833,61.5 107.5,62.5C 106.534,60.604 106.201,58.604 106.5,56.5 Z"/></g>
<g><path style="opacity:1" fill="#a474ff" d="M 54.5,55.5 C 54.56,54.9569 54.8933,54.6236 55.5,54.5C 58.0048,56.2533 60.6714,57.7533 63.5,59C 65.2552,59.7199 66.0885,60.8866 66,62.5C 62.2221,60.0299 58.3888,57.6966 54.5,55.5 Z"/></g>
<g><path style="opacity:0.984" fill="#d7d7e4" d="M 70.5,7.5 C 70.5,7.83333 70.5,8.16667 70.5,8.5C 68.9519,8.82124 68.2852,9.82124 68.5,11.5C 66.8008,11.3398 65.1341,11.5065 63.5,12C 65.0614,12.941 66.3947,14.1076 67.5,15.5C 65.359,17.2527 66.0257,18.2527 69.5,18.5C 73.7935,21.1052 78.1269,23.7719 82.5,26.5C 84.3161,24.3481 86.3161,24.3481 88.5,26.5C 88.9046,27.5498 89.5712,27.5498 90.5,26.5C 91.548,27.548 92.548,28.548 93.5,29.5C 92.0998,30.1001 91.0998,31.1001 90.5,32.5C 89.2172,35.3654 89.2172,38.3654 90.5,41.5C 88.8241,42.7276 88.4908,44.0609 89.5,45.5C 88.6909,47.2922 88.1909,49.2922 88,51.5C 86.6081,48.7216 86.1081,45.7216 86.5,42.5C 85.5,42.5 84.5,42.5 83.5,42.5C 83.5,41.8333 83.5,41.1667 83.5,40.5C 83.8333,40.5 84.1667,40.5 84.5,40.5C 85.1894,41.7736 86.0228,41.7736 87,40.5C 87.8236,37.1177 87.657,33.7844 86.5,30.5C 85.5344,32.396 85.2011,34.396 85.5,36.5C 84.79,34.1073 84.1233,31.6073 83.5,29C 77.1442,25.4899 70.8108,21.9899 64.5,18.5C 63.2921,15.9558 61.2921,14.6225 58.5,14.5C 56.0757,12.7572 53.409,11.4238 50.5,10.5C 49.3338,26.156 49.1671,41.8227 50,57.5C 54.6699,60.03 59.1699,62.6967 63.5,65.5C 62.1667,65.5 60.8333,65.5 59.5,65.5C 56.4475,64.2231 53.6141,62.5564 51,60.5C 50.5357,61.0944 50.369,61.7611 50.5,62.5C 50.5,63.1667 50.1667,63.5 49.5,63.5C 45.1638,65.332 41.1638,67.6654 37.5,70.5C 33.827,72.0002 30.4937,74.0002 27.5,76.5C 31.6413,78.9866 35.6413,81.6533 39.5,84.5C 34.8109,88.6981 29.4776,92.1981 23.5,95C 23.0698,95.9195 22.7365,96.7528 22.5,97.5C 16.4794,93.994 10.4794,90.8273 4.5,88C 5.82277,88.8159 6.48944,89.9826 6.5,91.5C 2.1987,90.4045 1.53203,88.2378 4.5,85C 18.8453,76.1312 33.512,67.9645 48.5,60.5C 48.5,43.1667 48.5,25.8333 48.5,8.5C 51.5879,8.37731 54.2546,9.37731 56.5,11.5C 57.5934,9.23031 59.0934,8.89697 61,10.5C 63.0617,8.29615 64.2283,5.62948 64.5,2.5C 64.7828,1.71087 65.2828,1.0442 66,0.5C 67.0113,3.19958 68.5113,5.53291 70.5,7.5 Z"/></g>
<g><path style="opacity:1" fill="#a373ff" d="M 83.5,40.5 C 83.5,41.1667 83.5,41.8333 83.5,42.5C 83.7989,44.604 83.4656,46.604 82.5,48.5C 81.3391,44.2047 81.1725,39.8713 82,35.5C 83.2692,36.9047 83.7692,38.5714 83.5,40.5 Z"/></g>
<g><path style="opacity:1" fill="#a474ff" d="M 54.5,26.5 C 58.1497,28.4717 61.8164,30.4717 65.5,32.5C 66.521,33.0016 66.6877,33.6683 66,34.5C 61.4214,32.6503 57.588,29.9837 54.5,26.5 Z"/></g>
<g><path style="opacity:1" fill="#8a59e9" d="M 84.5,40.5 C 85.4345,39.4324 85.7678,38.099 85.5,36.5C 85.2011,34.396 85.5344,32.396 86.5,30.5C 87.657,33.7844 87.8236,37.1177 87,40.5C 86.0228,41.7736 85.1894,41.7736 84.5,40.5 Z"/></g>
<g><path style="opacity:1" fill="#786a6f" d="M 59.5,24.5 C 64.7293,25.7515 64.7293,26.5848 59.5,27C 58.4019,26.2303 58.4019,25.397 59.5,24.5 Z"/></g>
<g><path style="opacity:1" fill="#e67470" d="M 58.5,14.5 C 61.2921,14.6225 63.2921,15.9558 64.5,18.5C 63.8423,19.3984 63.1757,20.3984 62.5,21.5C 59.3651,20.2333 58.0317,17.9 58.5,14.5 Z"/></g>
<g><path style="opacity:1" fill="#7f4be1" d="M 10.5,61.5 C 12.3225,64.8309 13.3225,68.4976 13.5,72.5C 11.6644,74.588 9.33105,75.9213 6.5,76.5C 4.83333,75.1667 3.16667,73.8333 1.5,72.5C 0.330667,66.6732 2.164,62.3398 7,59.5C 8.11268,60.305 9.27935,60.9717 10.5,61.5 Z"/></g>
<g><path style="opacity:1" fill="#4a4e5d" d="M 49.5,63.5 C 59.1667,69.5 68.8333,75.5 78.5,81.5C 78.458,82.479 78.458,83.479 78.5,84.5C 75.2827,83.4656 72.4494,81.7989 70,79.5C 68.3831,80.5358 68.2164,81.7025 69.5,83C 67.9559,83.2896 66.6226,83.9563 65.5,85C 65.8333,85.3333 66.1667,85.6667 66.5,86C 63.5912,87.9899 60.5912,88.9899 57.5,89C 58.0253,89.6924 58.6919,90.1924 59.5,90.5C 62.7575,89.0475 63.2575,89.7142 61,92.5C 56.0218,89.5941 50.8551,87.0941 45.5,85C 46.0253,84.3076 46.6919,83.8076 47.5,83.5C 49.8358,85.5846 52.1691,85.7512 54.5,84C 50.7898,82.4845 47.4565,80.4845 44.5,78C 46.1783,78.1123 47.845,78.6123 49.5,79.5C 50.1667,79.1667 50.8333,78.8333 51.5,78.5C 46.9,75.6411 42.2334,72.9744 37.5,70.5C 41.1638,67.6654 45.1638,65.332 49.5,63.5 Z"/></g>
<g><path style="opacity:1" fill="#533f75" d="M 140.5,78.5 C 138.539,76.6326 137.206,74.2992 136.5,71.5C 135.081,72.0047 134.415,73.0047 134.5,74.5C 133.065,72.0285 133.899,70.3618 137,69.5C 139.224,72.0382 140.39,75.0382 140.5,78.5 Z"/></g>
<g><path style="opacity:0.302" fill="#d1d2e4" d="M 1.5,72.5 C 3.16667,73.8333 4.83333,75.1667 6.5,76.5C 6.2648,77.0967 5.7648,77.4301 5,77.5C 3.23548,76.3679 1.40215,75.3679 -0.5,74.5C -0.5,74.1667 -0.5,73.8333 -0.5,73.5C 0.166667,73.1667 0.833333,72.8333 1.5,72.5 Z"/></g>
<g><path style="opacity:1" fill="#3e4352" d="M 59.5,65.5 C 76.0191,75.014 92.5191,84.6807 109,94.5C 109.667,95.1667 109.667,95.8333 109,96.5C 89.7182,84.7763 70.2182,73.443 50.5,62.5C 50.369,61.7611 50.5357,61.0944 51,60.5C 53.6141,62.5564 56.4475,64.2231 59.5,65.5 Z"/></g>
<g><path style="opacity:0.991" fill="#efd7c9" d="M 140.5,78.5 C 141.756,80.941 141.756,83.2743 140.5,85.5C 139.596,84.791 139.263,83.791 139.5,82.5C 139.167,81.1667 138.833,81.1667 138.5,82.5C 136.708,82.366 135.042,82.6993 133.5,83.5C 132.351,80.3988 132.684,77.3988 134.5,74.5C 134.415,73.0047 135.081,72.0047 136.5,71.5C 137.206,74.2992 138.539,76.6326 140.5,78.5 Z"/></g>
<g><path style="opacity:1" fill="#3a3f4e" d="M 37.5,70.5 C 42.2334,72.9744 46.9,75.6411 51.5,78.5C 50.8333,78.8333 50.1667,79.1667 49.5,79.5C 47.845,78.6123 46.1783,78.1123 44.5,78C 47.4565,80.4845 50.7898,82.4845 54.5,84C 52.1691,85.7512 49.8358,85.5846 47.5,83.5C 46.6919,83.8076 46.0253,84.3076 45.5,85C 50.8551,87.0941 56.0218,89.5941 61,92.5C 63.2575,89.7142 62.7575,89.0475 59.5,90.5C 58.6919,90.1924 58.0253,89.6924 57.5,89C 60.5912,88.9899 63.5912,87.9899 66.5,86C 66.1667,85.6667 65.8333,85.3333 65.5,85C 66.6226,83.9563 67.9559,83.2896 69.5,83C 68.2164,81.7025 68.3831,80.5358 70,79.5C 72.4494,81.7989 75.2827,83.4656 78.5,84.5C 78.458,83.479 78.458,82.479 78.5,81.5C 88.1042,86.3038 97.4375,91.6371 106.5,97.5C 99.7004,102.071 92.7004,106.404 85.5,110.5C 83.3317,108.83 80.9984,107.497 78.5,106.5C 79.347,105.034 80.6803,104.2 82.5,104C 80.9411,103.02 79.2744,102.187 77.5,101.5C 79.5128,98.8776 81.6795,98.8776 84,101.5C 84.5,101.333 85,101.167 85.5,101C 84.6919,100.692 84.0253,100.192 83.5,99.5C 84.7287,98.7189 86.062,98.2189 87.5,98C 86.1667,97.3333 86.1667,96.6667 87.5,96C 89.6546,95.884 91.6546,96.2173 93.5,97C 91.7173,95.2684 89.7173,93.7684 87.5,92.5C 87.9354,93.9618 87.102,94.9618 85,95.5C 82.6198,94.1474 80.1198,92.9808 77.5,92C 82.3474,89.742 81.8474,87.9086 76,86.5C 72.9124,87.6708 70.9124,89.3374 70,91.5C 67.9757,91.2005 67.4757,90.3671 68.5,89C 66.2858,88.5403 65.6192,89.207 66.5,91C 65.3774,92.0437 64.0441,92.7104 62.5,93C 66.5689,96.0632 70.9022,98.7299 75.5,101C 74.4366,102.188 73.1033,102.688 71.5,102.5C 61.1741,96.0009 50.5074,90.0009 39.5,84.5C 35.6413,81.6533 31.6413,78.9866 27.5,76.5C 30.4937,74.0002 33.827,72.0002 37.5,70.5 Z"/></g>
<g><path style="opacity:0.95" fill="#9156fb" d="M 138.5,82.5 C 138.833,82.5 139.167,82.5 139.5,82.5C 139.263,83.791 139.596,84.791 140.5,85.5C 140.452,89.7968 140.119,93.7968 139.5,97.5C 137.5,98.8333 135.5,98.8333 133.5,97.5C 132.238,92.8479 132.238,88.1812 133.5,83.5C 135.042,82.6993 136.708,82.366 138.5,82.5 Z"/></g>
<g><path style="opacity:1" fill="#cbcdda" d="M 92.5,34.5 C 93.209,33.596 94.209,33.2627 95.5,33.5C 101.521,37.2664 107.687,40.9331 114,44.5C 114.667,62.1667 114.667,79.8333 114,97.5C 113.626,98.4162 113.126,99.2496 112.5,100C 97.3534,108.654 82.1867,117.154 67,125.5C 46.4705,114.802 26.3039,103.469 6.5,91.5C 6.48944,89.9826 5.82277,88.8159 4.5,88C 10.4794,90.8273 16.4794,93.994 22.5,97.5C 22.7365,96.7528 23.0698,95.9195 23.5,95C 29.4776,92.1981 34.8109,88.6981 39.5,84.5C 50.5074,90.0009 61.1741,96.0009 71.5,102.5C 73.7933,103.828 76.1267,105.161 78.5,106.5C 80.9984,107.497 83.3317,108.83 85.5,110.5C 92.7004,106.404 99.7004,102.071 106.5,97.5C 97.4375,91.6371 88.1042,86.3038 78.5,81.5C 68.8333,75.5 59.1667,69.5 49.5,63.5C 50.1667,63.5 50.5,63.1667 50.5,62.5C 70.2182,73.443 89.7182,84.7763 109,96.5C 109.667,95.8333 109.667,95.1667 109,94.5C 92.5191,84.6807 76.0191,75.014 59.5,65.5C 60.8333,65.5 62.1667,65.5 63.5,65.5C 80.0008,74.5825 96.3342,83.9158 112.5,93.5C 113.666,77.844 113.833,62.1773 113,46.5C 106.385,42.11 99.5522,38.11 92.5,34.5 Z"/></g>
<g><path style="opacity:0.93" fill="#f9cdb0" d="M 133.5,97.5 C 135.5,98.8333 137.5,98.8333 139.5,97.5C 139.935,99.2967 139.935,101.297 139.5,103.5C 138.89,104.391 138.557,105.391 138.5,106.5C 137.167,106.167 135.833,105.833 134.5,105.5C 134.5,104.833 134.5,104.167 134.5,103.5C 133.85,101.565 133.517,99.5648 133.5,97.5 Z"/></g>
<g><path style="opacity:1" fill="#323034" d="M 8.5,101.5 C 7.16667,101.5 5.83333,101.5 4.5,101.5C 4.5,102.5 4.5,103.5 4.5,104.5C 1.93047,102.25 2.43047,100.583 6,99.5C 7.37561,99.6842 8.20894,100.351 8.5,101.5 Z"/></g>
<g><path style="opacity:1" fill="#535766" d="M 78.5,106.5 C 76.1267,105.161 73.7933,103.828 71.5,102.5C 73.1033,102.688 74.4366,102.188 75.5,101C 70.9022,98.7299 66.5689,96.0632 62.5,93C 64.0441,92.7104 65.3774,92.0437 66.5,91C 65.6192,89.207 66.2858,88.5403 68.5,89C 67.4757,90.3671 67.9757,91.2005 70,91.5C 70.9124,89.3374 72.9124,87.6708 76,86.5C 81.8474,87.9086 82.3474,89.742 77.5,92C 80.1198,92.9808 82.6198,94.1474 85,95.5C 87.102,94.9618 87.9354,93.9618 87.5,92.5C 89.7173,93.7684 91.7173,95.2684 93.5,97C 91.6546,96.2173 89.6546,95.884 87.5,96C 86.1667,96.6667 86.1667,97.3333 87.5,98C 86.062,98.2189 84.7287,98.7189 83.5,99.5C 84.0253,100.192 84.6919,100.692 85.5,101C 85,101.167 84.5,101.333 84,101.5C 81.6795,98.8776 79.5128,98.8776 77.5,101.5C 79.2744,102.187 80.9411,103.02 82.5,104C 80.6803,104.2 79.347,105.034 78.5,106.5 Z"/></g>
<g><path style="opacity:0.959" fill="#f4f5fb" d="M 126.5,108.5 C 125.508,108.328 124.842,108.662 124.5,109.5C 119.53,110.166 114.53,110.833 109.5,111.5C 108.332,115.645 106.999,119.645 105.5,123.5C 101.886,125.307 98.2198,127.14 94.5,129C 94.0338,130.299 94.0338,131.799 94.5,133.5C 98.9228,131.453 103.256,129.12 107.5,126.5C 108.261,125.609 109.261,124.942 110.5,124.5C 114.884,125.777 119.218,125.777 123.5,124.5C 123.557,125.609 123.89,126.609 124.5,127.5C 123.532,129.607 123.198,131.941 123.5,134.5C 117.626,137.354 111.793,140.354 106,143.5C 96.5215,137.524 86.6882,132.19 76.5,127.5C 77.6417,125.567 79.3083,124.067 81.5,123C 93.6626,116.42 105.663,109.586 117.5,102.5C 120.738,104.275 123.738,106.275 126.5,108.5 Z"/></g>
<g><path style="opacity:1" fill="#f6e7dd" d="M 8.5,101.5 C 9.85972,104.62 10.6931,107.953 11,111.5C 11.3333,111.833 11.6667,112.167 12,112.5C 13.6269,110.688 15.1269,110.521 16.5,112C 16.5524,116.427 14.5524,119.261 10.5,120.5C 8.11412,118.925 5.44746,117.925 2.5,117.5C 2.27558,113.821 1.94225,110.154 1.5,106.5C 3.17876,106.715 4.17876,106.048 4.5,104.5C 4.5,103.5 4.5,102.5 4.5,101.5C 5.83333,101.5 7.16667,101.5 8.5,101.5 Z"/></g>
<g><path style="opacity:1" fill="#3f3d41" d="M 126.5,108.5 C 127.167,108.5 127.833,108.5 128.5,108.5C 128.5,109.167 128.833,109.5 129.5,109.5C 129.5,110.5 129.5,111.5 129.5,112.5C 128.85,112.804 128.183,113.137 127.5,113.5C 126.859,112.007 125.859,111.007 124.5,110.5C 124.5,110.167 124.5,109.833 124.5,109.5C 124.842,108.662 125.508,108.328 126.5,108.5 Z"/></g>
<g><path style="opacity:0.958" fill="#4a3974" d="M 30.5,116.5 C 29.7002,118.741 28.0336,119.741 25.5,119.5C 25.6633,117.143 25.4966,114.81 25,112.5C 24.6174,111.944 24.1174,111.611 23.5,111.5C 24.3148,109.092 25.9814,108.259 28.5,109C 29.5541,111.382 30.2208,113.882 30.5,116.5 Z"/></g>
<g><path style="opacity:0.921" fill="#e7e8f1" d="M 134.5,103.5 C 134.5,104.167 134.5,104.833 134.5,105.5C 134.196,106.15 133.863,106.817 133.5,107.5C 134.758,106.984 135.758,107.65 136.5,109.5C 138.383,108.735 139.049,107.735 138.5,106.5C 138.557,105.391 138.89,104.391 139.5,103.5C 143.839,105.021 144.505,107.521 141.5,111C 138.833,111.333 136.167,111.667 133.5,112C 138.062,114.78 142.728,117.28 147.5,119.5C 147.5,120.167 147.5,120.833 147.5,121.5C 141.998,125.085 136.331,128.419 130.5,131.5C 130.5,129.5 130.5,127.5 130.5,125.5C 131.376,125.631 132.043,125.298 132.5,124.5C 131.834,123.169 131.834,121.669 132.5,120C 132.156,117.173 131.156,114.673 129.5,112.5C 129.5,111.5 129.5,110.5 129.5,109.5C 128.833,109.5 128.5,109.167 128.5,108.5C 128.968,105.034 130.968,103.368 134.5,103.5 Z"/></g>
<g><path style="opacity:1" fill="#624c90" d="M 134.5,105.5 C 135.833,105.833 137.167,106.167 138.5,106.5C 139.049,107.735 138.383,108.735 136.5,109.5C 135.758,107.65 134.758,106.984 133.5,107.5C 133.863,106.817 134.196,106.15 134.5,105.5 Z"/></g>
<g><path style="opacity:1" fill="#f3e5dd" d="M 124.5,110.5 C 125.859,111.007 126.859,112.007 127.5,113.5C 128.183,113.137 128.85,112.804 129.5,112.5C 131.156,114.673 132.156,117.173 132.5,120C 131.834,121.669 131.834,123.169 132.5,124.5C 132.043,125.298 131.376,125.631 130.5,125.5C 128.858,127.081 126.858,127.747 124.5,127.5C 123.89,126.609 123.557,125.609 123.5,124.5C 120.464,124.014 117.797,122.68 115.5,120.5C 116,120.167 116.5,119.833 117,119.5C 118.368,120.703 119.868,121.703 121.5,122.5C 122.104,119.737 123.438,117.403 125.5,115.5C 124.691,113.929 124.357,112.262 124.5,110.5 Z"/></g>
<g><path style="opacity:0.817" fill="#e16464" d="M 2.5,117.5 C 5.44746,117.925 8.11412,118.925 10.5,120.5C 10.2756,124.179 9.94225,127.846 9.5,131.5C 9.16667,132.167 8.83333,132.833 8.5,133.5C 7.83333,133.5 7.16667,133.5 6.5,133.5C 6.5,132.833 6.5,132.167 6.5,131.5C 6.16667,127.5 5.83333,127.5 5.5,131.5C 4.76589,132.708 4.43255,134.041 4.5,135.5C 3.83333,135.5 3.16667,135.5 2.5,135.5C 2.5,134.5 2.5,133.5 2.5,132.5C 3.67296,127.513 3.67296,122.513 2.5,117.5 Z"/></g>
<g><path style="opacity:0.954" fill="#e8dad7" d="M 23.5,111.5 C 24.1174,111.611 24.6174,111.944 25,112.5C 25.4966,114.81 25.6633,117.143 25.5,119.5C 28.0336,119.741 29.7002,118.741 30.5,116.5C 31.7671,119.061 31.7671,121.728 30.5,124.5C 28.283,123.631 25.9496,123.298 23.5,123.5C 23.5,123.167 23.5,122.833 23.5,122.5C 24.1495,120.565 24.4828,118.565 24.5,116.5C 23.962,114.883 23.6287,113.216 23.5,111.5 Z"/></g>
<g><path style="opacity:1" fill="#c4c7d7" d="M 124.5,109.5 C 124.5,109.833 124.5,110.167 124.5,110.5C 124.357,112.262 124.691,113.929 125.5,115.5C 123.438,117.403 122.104,119.737 121.5,122.5C 119.868,121.703 118.368,120.703 117,119.5C 116.5,119.833 116,120.167 115.5,120.5C 117.797,122.68 120.464,124.014 123.5,124.5C 119.218,125.777 114.884,125.777 110.5,124.5C 109.261,124.942 108.261,125.609 107.5,126.5C 107.715,124.821 107.048,123.821 105.5,123.5C 106.999,119.645 108.332,115.645 109.5,111.5C 114.53,110.833 119.53,110.166 124.5,109.5 Z"/></g>
<g><path style="opacity:0.937" fill="#fed0ad" d="M 24.5,116.5 C 24.4828,118.565 24.1495,120.565 23.5,122.5C 20.4779,125.026 17.1446,125.693 13.5,124.5C 14.6197,122.404 16.1197,122.07 18,123.5C 20.6389,121.515 22.8056,119.181 24.5,116.5 Z"/></g>
<g><path style="opacity:1" fill="#945dfe" d="M 105.5,123.5 C 107.048,123.821 107.715,124.821 107.5,126.5C 103.256,129.12 98.9228,131.453 94.5,133.5C 94.0338,131.799 94.0338,130.299 94.5,129C 98.2198,127.14 101.886,125.307 105.5,123.5 Z"/></g>
<g><path style="opacity:0.962" fill="#9559fa" d="M 23.5,123.5 C 25.9496,123.298 28.283,123.631 30.5,124.5C 30.4476,128.198 30.1143,131.865 29.5,135.5C 28.209,135.263 27.209,135.596 26.5,136.5C 26.1667,136.5 25.8333,136.5 25.5,136.5C 24.791,135.596 23.791,135.263 22.5,135.5C 22.307,131.434 22.6403,127.434 23.5,123.5 Z"/></g>
<g><path style="opacity:0.882" fill="#e06666" d="M 130.5,125.5 C 130.5,127.5 130.5,129.5 130.5,131.5C 130.5,134.833 130.5,138.167 130.5,141.5C 130.5,142.167 130.5,142.833 130.5,143.5C 129.178,143.67 128.011,143.337 127,142.5C 126.536,143.094 126.369,143.761 126.5,144.5C 126.5,144.833 126.5,145.167 126.5,145.5C 125.508,145.672 124.842,145.338 124.5,144.5C 124.737,143.209 124.404,142.209 123.5,141.5C 123.5,139.5 123.5,137.5 123.5,135.5C 123.5,135.167 123.5,134.833 123.5,134.5C 123.198,131.941 123.532,129.607 124.5,127.5C 126.858,127.747 128.858,127.081 130.5,125.5 Z"/></g>
<g><path style="opacity:0.33" fill="#d6d5e3" d="M 5.5,131.5 C 5.83333,131.5 6.16667,131.5 6.5,131.5C 6.5,132.167 6.5,132.833 6.5,133.5C 7.16165,135.832 8.49498,136.499 10.5,135.5C 10.1445,134.478 9.47784,133.811 8.5,133.5C 8.83333,132.833 9.16667,132.167 9.5,131.5C 13.3958,132.78 14.3958,135.28 12.5,139C 8.05632,141.068 3.72299,140.901 -0.5,138.5C -0.5,136.833 -0.5,135.167 -0.5,133.5C 0.391047,132.89 1.39105,132.557 2.5,132.5C 2.5,133.5 2.5,134.5 2.5,135.5C 3.32185,137.728 4.65518,138.395 6.5,137.5C 6.14451,136.478 5.47784,135.811 4.5,135.5C 4.43255,134.041 4.76589,132.708 5.5,131.5 Z"/></g>
<g><path style="opacity:1" fill="#504248" d="M 6.5,133.5 C 7.16667,133.5 7.83333,133.5 8.5,133.5C 9.47784,133.811 10.1445,134.478 10.5,135.5C 8.49498,136.499 7.16165,135.832 6.5,133.5 Z"/></g>
<g><path style="opacity:1" fill="#4a3f45" d="M 2.5,135.5 C 3.16667,135.5 3.83333,135.5 4.5,135.5C 5.47784,135.811 6.14451,136.478 6.5,137.5C 4.65518,138.395 3.32185,137.728 2.5,135.5 Z"/></g>
<g><path style="opacity:0.927" fill="#fbcbad" d="M 22.5,135.5 C 23.791,135.263 24.791,135.596 25.5,136.5C 25.2148,138.288 25.5481,139.955 26.5,141.5C 26.8072,140.113 26.8072,138.446 26.5,136.5C 27.209,135.596 28.209,135.263 29.5,135.5C 29.5,137.833 29.5,140.167 29.5,142.5C 28.8333,142.5 28.5,142.833 28.5,143.5C 27.609,142.89 26.609,142.557 25.5,142.5C 24.8999,143.9 23.8999,144.9 22.5,145.5C 22.5,144.167 22.5,142.833 22.5,141.5C 22.5,139.5 22.5,137.5 22.5,135.5 Z M 25.5,136.5 C 25.8333,136.5 26.1667,136.5 26.5,136.5C 26.8072,138.446 26.8072,140.113 26.5,141.5C 25.5481,139.955 25.2148,138.288 25.5,136.5 Z"/></g>
<g><path style="opacity:0.178" fill="#c9cbd9" d="M 76.5,127.5 C 86.6882,132.19 96.5215,137.524 106,143.5C 111.793,140.354 117.626,137.354 123.5,134.5C 123.5,134.833 123.5,135.167 123.5,135.5C 117.444,139.281 111.277,142.948 105,146.5C 95.25,140.374 85.4167,134.374 75.5,128.5C 75.6236,127.893 75.9569,127.56 76.5,127.5 Z"/></g>
<g><path style="opacity:0.368" fill="#d2d0e1" d="M 22.5,141.5 C 22.5,142.833 22.5,144.167 22.5,145.5C 23.8999,144.9 24.8999,143.9 25.5,142.5C 25.7496,143.922 26.583,144.922 28,145.5C 28.4643,144.906 28.631,144.239 28.5,143.5C 28.5,142.833 28.8333,142.5 29.5,142.5C 31.4841,142.484 32.4841,143.484 32.5,145.5C 32.2483,147.073 31.5817,148.406 30.5,149.5C 27.1667,149.5 23.8333,149.5 20.5,149.5C 16.3312,145.804 16.9978,143.137 22.5,141.5 Z"/></g>
<g><path style="opacity:0.346" fill="#d3d3e2" d="M 123.5,141.5 C 124.404,142.209 124.737,143.209 124.5,144.5C 121.972,145.518 122.139,146.518 125,147.5C 126.03,147.164 126.53,146.497 126.5,145.5C 126.5,145.167 126.5,144.833 126.5,144.5C 128.456,146.175 129.789,145.842 130.5,143.5C 130.5,142.833 130.5,142.167 130.5,141.5C 134.02,143.737 134.353,146.404 131.5,149.5C 128.167,149.5 124.833,149.5 121.5,149.5C 118.419,145.822 119.086,143.155 123.5,141.5 Z"/></g>
<g><path style="opacity:1" fill="#543e87" d="M 25.5,142.5 C 26.609,142.557 27.609,142.89 28.5,143.5C 28.631,144.239 28.4643,144.906 28,145.5C 26.583,144.922 25.7496,143.922 25.5,142.5 Z"/></g>
<g><path style="opacity:0.831" fill="#574147" d="M 130.5,143.5 C 129.789,145.842 128.456,146.175 126.5,144.5C 126.369,143.761 126.536,143.094 127,142.5C 128.011,143.337 129.178,143.67 130.5,143.5 Z"/></g>
<g><path style="opacity:1" fill="#564248" d="M 124.5,144.5 C 124.842,145.338 125.508,145.672 126.5,145.5C 126.53,146.497 126.03,147.164 125,147.5C 122.139,146.518 121.972,145.518 124.5,144.5 Z"/></g>
<g><path style="opacity:1" fill="#573f8e" d="M 22.5,145.5 C 25.2087,147.132 24.8753,147.632 21.5,147C 20.2881,145.893 20.6214,145.393 22.5,145.5 Z"/></g>
</svg>
